# xmcd
#
# Track frame offsets: 
#        182
#        11572
#        25952
#        37895
#        51245
#        62652
#        74277
#        88337
#        106100
#        118087
#
# Disc length: 1704 seconds
#
# Revision: 2
# Processed by: cddbd v1.5.2PL0 Copyright (c) Steve Scherf et al.
# Submitted via: ExactAudioCopy v0.95b4
#
DISCID=8106a60a
DTITLE=The Statler Brothers - Today's Gospel Favorites
DYEAR=1900
DGENRE=Gospel
TTITLE0=Turn Your Radio On
TTITLE1=A Different Song
TTITLE2=Blessed Be
TTITLE3=Love Lifted Me
TTITLE4=Jesus Is The Answer Everytime
TTITLE5=Just A Little Talk With Jesus
TTITLE6=Precious Memories
TTITLE7=Rock Of Ages
TTITLE8=I Believe I'll Live For Him
TTITLE9=I'll Fly Away
EXTD=
EXTT0=
EXTT1=
EXTT2=
EXTT3=
EXTT4=
EXTT5=
EXTT6=
EXTT7=
EXTT8=
EXTT9=
PLAYORDER=
